<svg width="371" height="358" viewBox="0 0 371 358" fill="none" xmlns="http://www.w3.org/2000/svg">
<path opacity="0.86" d="M181 158.647L332.5 108.147V281.147L180.997 333.147L181 158.647Z" fill="#D9D9D9"/>
<path opacity="0.86" d="M40 76.1472L193.703 24L333 107.647L180.5 159.147L40 76.1472Z" fill="#D9D9D9"/>
<path opacity="0.86" d="M39.5 250.147L39.8235 76.9089L180 159.147L180 332.373L39.5 250.147Z" fill="#D9D9D9"/>
<line x1="39.6819" y1="75.6991" x2="194.682" y2="23.6991" stroke="white" stroke-width="2"/>
<path d="M179.841 159.173L333 107.647" stroke="white" stroke-width="2"/>
<line x1="180.676" y1="332.701" x2="332.676" y2="280.701" stroke="white" stroke-width="2"/>
<line x1="180.171" y1="333.087" x2="332.171" y2="108.087" stroke="white" stroke-width="2"/>
<line x1="180.123" y1="334.128" x2="39.1233" y2="77.1282" stroke="white" stroke-width="2"/>
<line x1="331.926" y1="107.642" x2="39.8945" y2="76.6416" stroke="white" stroke-width="2"/>
<line x1="39" y1="250.647" x2="39" y2="75.6472" stroke="white" stroke-width="2"/>
<line x1="179.997" y1="333.673" x2="179.997" y2="159.385" stroke="white" stroke-width="2"/>
<line x1="332.465" y1="280.764" x2="332.465" y2="106.476" stroke="white" stroke-width="2"/>
<line x1="39.5073" y1="75.7854" x2="180.507" y2="158.785" stroke="white" stroke-width="2"/>
<line x1="194.513" y1="23.7886" x2="333.513" y2="106.789" stroke="white" stroke-width="2"/>
<line x1="39.5048" y1="249.784" x2="181.502" y2="332.81" stroke="white" stroke-width="2"/>
</svg>
