<svg width="371" height="358" viewBox="0 0 371 358" fill="none" xmlns="http://www.w3.org/2000/svg">
<path opacity="0.66" d="M181 158.647L332.5 108.147V281.147L180.997 333.147L181 158.647Z" fill="#767676"/>
<path opacity="0.66" d="M40 76.1472L193.703 24L333 107.647L180.5 159.147L40 76.1472Z" fill="#767676"/>
<path opacity="0.66" d="M39.5 250.147L39.8235 76.9089L180 159.147L180 332.373L39.5 250.147Z" fill="#767676"/>
<line x1="39.841" y1="76.1732" x2="194.841" y2="24.1732" stroke="black"/>
<path d="M179.841 159.173L333 107.647" stroke="black"/>
<line x1="180.838" y1="333.174" x2="332.838" y2="281.174" stroke="black"/>
<line x1="180.586" y1="333.367" x2="332.586" y2="108.367" stroke="black"/>
<line x1="180.562" y1="333.888" x2="39.5616" y2="76.8877" stroke="black"/>
<line x1="331.979" y1="107.144" x2="39.9473" y2="76.1444" stroke="black"/>
<line x1="39.5" y1="250.647" x2="39.5" y2="75.6472" stroke="black"/>
<line x1="180.497" y1="333.673" x2="180.497" y2="159.385" stroke="black"/>
<line x1="332.965" y1="280.764" x2="332.965" y2="106.476" stroke="black"/>
<line x1="39.2536" y1="76.2163" x2="180.254" y2="159.216" stroke="black"/>
<line x1="194.256" y1="24.2179" x2="333.256" y2="107.218" stroke="black"/>
<line x1="39.2524" y1="250.216" x2="181.249" y2="333.242" stroke="black"/>
</svg>
